<mxfile host="65bd71144e">
    <diagram id="3UPK-L33isuok3oqNP-7" name="第 1 页">
        <mxGraphModel dx="991" dy="521" grid="1" gridSize="10" guides="1" tooltips="1" connect="1" arrows="1" fold="1" page="1" pageScale="1" pageWidth="827" pageHeight="1169" math="0" shadow="0">
            <root>
                <mxCell id="0"/>
                <mxCell id="1" parent="0"/>
                <mxCell id="76" value="" style="rounded=0;whiteSpace=wrap;html=1;" parent="1" vertex="1">
                    <mxGeometry x="430" y="800" width="480" height="300" as="geometry"/>
                </mxCell>
                <mxCell id="2" value="" style="rounded=0;whiteSpace=wrap;html=1;" parent="1" vertex="1">
                    <mxGeometry y="200" width="630" height="410" as="geometry"/>
                </mxCell>
                <mxCell id="49" value="返回接口数据" style="edgeStyle=orthogonalEdgeStyle;html=1;exitX=0.598;exitY=0.007;exitDx=0;exitDy=0;entryX=0.584;entryY=1.034;entryDx=0;entryDy=0;entryPerimeter=0;exitPerimeter=0;" parent="1" source="3" target="8" edge="1">
                    <mxGeometry x="-0.071" y="-53" relative="1" as="geometry">
                        <Array as="points">
                            <mxPoint x="397" y="180"/>
                        </Array>
                        <mxPoint as="offset"/>
                    </mxGeometry>
                </mxCell>
                <mxCell id="3" value="8080：JSON On HTTP" style="rounded=0;whiteSpace=wrap;html=1;" parent="1" vertex="1">
                    <mxGeometry x="140" y="240" width="430" height="50" as="geometry"/>
                </mxCell>
                <mxCell id="4" value="HTTP Server" style="rounded=0;whiteSpace=wrap;html=1;" parent="1" vertex="1">
                    <mxGeometry x="450" y="240" width="120" height="50" as="geometry"/>
                </mxCell>
                <mxCell id="6" style="edgeStyle=none;html=1;exitX=0;exitY=0.5;exitDx=0;exitDy=0;entryX=1;entryY=0.5;entryDx=0;entryDy=0;" parent="1" source="5" target="4" edge="1">
                    <mxGeometry relative="1" as="geometry"/>
                </mxCell>
                <mxCell id="5" value="&lt;h1&gt;Protocol&lt;/h1&gt;&lt;p&gt;协议服务器&lt;/p&gt;" style="text;html=1;strokeColor=none;fillColor=none;spacing=5;spacingTop=-20;whiteSpace=wrap;overflow=hidden;rounded=0;" parent="1" vertex="1">
                    <mxGeometry x="670" y="205" width="190" height="120" as="geometry"/>
                </mxCell>
                <mxCell id="10" value="请参数" style="edgeStyle=orthogonalEdgeStyle;html=1;exitX=0.5;exitY=1;exitDx=0;exitDy=0;entryX=0.5;entryY=0;entryDx=0;entryDy=0;" parent="1" source="8" target="3" edge="1">
                    <mxGeometry x="0.0909" y="-25" relative="1" as="geometry">
                        <mxPoint as="offset"/>
                    </mxGeometry>
                </mxCell>
                <mxCell id="8" value="" style="rounded=0;whiteSpace=wrap;html=1;" parent="1" vertex="1">
                    <mxGeometry x="100" y="70" width="510" height="60" as="geometry"/>
                </mxCell>
                <mxCell id="9" value="浏览器" style="text;html=1;strokeColor=none;fillColor=none;align=center;verticalAlign=middle;whiteSpace=wrap;rounded=0;" parent="1" vertex="1">
                    <mxGeometry x="110" y="30" width="60" height="30" as="geometry"/>
                </mxCell>
                <mxCell id="11" value="&lt;div style=&quot;border-radius: 0px !important; background: none rgb(244, 244, 244) !important; border: 0px !important; inset: auto !important; float: none !important; height: auto !important; line-height: 1.8em !important; margin: 0px !important; outline: 0px !important; overflow: visible !important; padding: 0px 1em !important; position: static !important; text-align: left; vertical-align: baseline !important; width: auto !important; box-sizing: content-box !important; font-family: Consolas, &amp;quot;Bitstream Vera Sans Mono&amp;quot;, &amp;quot;Courier New&amp;quot;, Courier, monospace; font-weight: 400; font-style: normal; font-size: 12px; min-height: auto !important; white-space-collapse: collapse; text-wrap: nowrap !important; color: rgb(75, 75, 75); font-variant-ligatures: normal; font-variant-caps: normal; letter-spacing: normal; orphans: 2; text-indent: 0px; text-transform: none; widows: 2; word-spacing: 0px; -webkit-text-stroke-width: 0px; text-decoration-thickness: initial; text-decoration-style: initial; text-decoration-color: initial;&quot; class=&quot;line number1 index0 alt2&quot;&gt;&lt;code style=&quot;font-family: Consolas, &amp;quot;Bitstream Vera Sans Mono&amp;quot;, &amp;quot;Courier New&amp;quot;, Courier, monospace !important; border-radius: 0px !important; background: none !important; border: 0px !important; inset: auto !important; float: none !important; height: auto !important; line-height: 1.8em !important; margin: 0px !important; outline: 0px !important; overflow: visible !important; padding: 0px !important; position: static !important; text-align: left !important; vertical-align: baseline !important; width: auto !important; box-sizing: content-box !important; font-weight: normal !important; font-style: normal !important; font-size: 12px !important; min-height: auto !important; color: rgb(0, 0, 255) !important;&quot; class=&quot;go keyword bold&quot;&gt;package&lt;/code&gt;&lt;span&gt;&amp;nbsp;&lt;/span&gt;&lt;code style=&quot;font-family: Consolas, &amp;quot;Bitstream Vera Sans Mono&amp;quot;, &amp;quot;Courier New&amp;quot;, Courier, monospace !important; border-radius: 0px !important; background: none !important; border: 0px !important; inset: auto !important; float: none !important; height: auto !important; line-height: 1.8em !important; margin: 0px !important; outline: 0px !important; overflow: visible !important; padding: 0px !important; position: static !important; text-align: left !important; vertical-align: baseline !important; width: auto !important; box-sizing: content-box !important; font-weight: normal !important; font-style: normal !important; font-size: 12px !important; min-height: auto !important; color: rgb(0, 0, 0) !important;&quot; class=&quot;go plain&quot;&gt;main&lt;/code&gt;&lt;/div&gt;&lt;div style=&quot;border-radius: 0px !important; background: none rgb(255, 255, 255) !important; border: 0px !important; inset: auto !important; float: none !important; height: auto !important; line-height: 1.8em !important; margin: 0px !important; outline: 0px !important; overflow: visible !important; padding: 0px 1em !important; position: static !important; text-align: left; vertical-align: baseline !important; width: auto !important; box-sizing: content-box !important; font-family: Consolas, &amp;quot;Bitstream Vera Sans Mono&amp;quot;, &amp;quot;Courier New&amp;quot;, Courier, monospace; font-weight: 400; font-style: normal; font-size: 12px; min-height: auto !important; white-space-collapse: collapse; text-wrap: nowrap !important; color: rgb(75, 75, 75); font-variant-ligatures: normal; font-variant-caps: normal; letter-spacing: normal; orphans: 2; text-indent: 0px; text-transform: none; widows: 2; word-spacing: 0px; -webkit-text-stroke-width: 0px; text-decoration-thickness: initial; text-decoration-style: initial; text-decoration-color: initial;&quot; class=&quot;line number2 index1 alt1&quot;&gt;&amp;nbsp;&lt;/div&gt;&lt;div style=&quot;border-radius: 0px !important; background: none rgb(244, 244, 244) !important; border: 0px !important; inset: auto !important; float: none !important; height: auto !important; line-height: 1.8em !important; margin: 0px !important; outline: 0px !important; overflow: visible !important; padding: 0px 1em !important; position: static !important; text-align: left; vertical-align: baseline !important; width: auto !important; box-sizing: content-box !important; font-family: Consolas, &amp;quot;Bitstream Vera Sans Mono&amp;quot;, &amp;quot;Courier New&amp;quot;, Courier, monospace; font-weight: 400; font-style: normal; font-size: 12px; min-height: auto !important; white-space-collapse: collapse; text-wrap: nowrap !important; color: rgb(75, 75, 75); font-variant-ligatures: normal; font-variant-caps: normal; letter-spacing: normal; orphans: 2; text-indent: 0px; text-transform: none; widows: 2; word-spacing: 0px; -webkit-text-stroke-width: 0px; text-decoration-thickness: initial; text-decoration-style: initial; text-decoration-color: initial;&quot; class=&quot;line number3 index2 alt2&quot;&gt;&lt;code style=&quot;font-family: Consolas, &amp;quot;Bitstream Vera Sans Mono&amp;quot;, &amp;quot;Courier New&amp;quot;, Courier, monospace !important; border-radius: 0px !important; background: none !important; border: 0px !important; inset: auto !important; float: none !important; height: auto !important; line-height: 1.8em !important; margin: 0px !important; outline: 0px !important; overflow: visible !important; padding: 0px !important; position: static !important; text-align: left !important; vertical-align: baseline !important; width: auto !important; box-sizing: content-box !important; font-weight: normal !important; font-style: normal !important; font-size: 12px !important; min-height: auto !important; color: rgb(0, 0, 255) !important;&quot; class=&quot;go keyword bold&quot;&gt;import&lt;/code&gt;&lt;span&gt;&amp;nbsp;&lt;/span&gt;&lt;code style=&quot;font-family: Consolas, &amp;quot;Bitstream Vera Sans Mono&amp;quot;, &amp;quot;Courier New&amp;quot;, Courier, monospace !important; border-radius: 0px !important; background: none !important; border: 0px !important; inset: auto !important; float: none !important; height: auto !important; line-height: 1.8em !important; margin: 0px !important; outline: 0px !important; overflow: visible !important; padding: 0px !important; position: static !important; text-align: left !important; vertical-align: baseline !important; width: auto !important; box-sizing: content-box !important; font-weight: normal !important; font-style: normal !important; font-size: 12px !important; min-height: auto !important; color: rgb(0, 0, 0) !important;&quot; class=&quot;go plain&quot;&gt;(&lt;/code&gt;&lt;/div&gt;&lt;div style=&quot;border-radius: 0px !important; background: none rgb(255, 255, 255) !important; border: 0px !important; inset: auto !important; float: none !important; height: auto !important; line-height: 1.8em !important; margin: 0px !important; outline: 0px !important; overflow: visible !important; padding: 0px 1em !important; position: static !important; text-align: left; vertical-align: baseline !important; width: auto !important; box-sizing: content-box !important; font-family: Consolas, &amp;quot;Bitstream Vera Sans Mono&amp;quot;, &amp;quot;Courier New&amp;quot;, Courier, monospace; font-weight: 400; font-style: normal; font-size: 12px; min-height: auto !important; white-space-collapse: collapse; text-wrap: nowrap !important; color: rgb(75, 75, 75); font-variant-ligatures: normal; font-variant-caps: normal; letter-spacing: normal; orphans: 2; text-indent: 0px; text-transform: none; widows: 2; word-spacing: 0px; -webkit-text-stroke-width: 0px; text-decoration-thickness: initial; text-decoration-style: initial; text-decoration-color: initial;&quot; class=&quot;line number4 index3 alt1&quot;&gt;&lt;code style=&quot;font-family: Consolas, &amp;quot;Bitstream Vera Sans Mono&amp;quot;, &amp;quot;Courier New&amp;quot;, Courier, monospace !important; border-radius: 0px !important; background: none !important; border: 0px !important; inset: auto !important; float: none !important; height: auto !important; line-height: 1.8em !important; margin: 0px !important; outline: 0px !important; overflow: visible !important; padding: 0px !important; position: static !important; text-align: left !important; vertical-align: baseline !important; width: auto !important; box-sizing: content-box !important; font-weight: normal !important; font-style: normal !important; font-size: 12px !important; min-height: auto !important;&quot; class=&quot;go spaces&quot;&gt;&amp;nbsp;&amp;nbsp;&amp;nbsp;&amp;nbsp;&lt;/code&gt;&lt;code style=&quot;font-family: Consolas, &amp;quot;Bitstream Vera Sans Mono&amp;quot;, &amp;quot;Courier New&amp;quot;, Courier, monospace !important; border-radius: 0px !important; background: none !important; border: 0px !important; inset: auto !important; float: none !important; height: auto !important; line-height: 1.8em !important; margin: 0px !important; outline: 0px !important; overflow: visible !important; padding: 0px !important; position: static !important; text-align: left !important; vertical-align: baseline !important; width: auto !important; box-sizing: content-box !important; font-weight: normal !important; font-style: normal !important; font-size: 12px !important; min-height: auto !important; color: rgb(0, 0, 255) !important;&quot; class=&quot;go string&quot;&gt;&quot;log&quot;&lt;/code&gt;&lt;/div&gt;&lt;div style=&quot;border-radius: 0px !important; background: none rgb(244, 244, 244) !important; border: 0px !important; inset: auto !important; float: none !important; height: auto !important; line-height: 1.8em !important; margin: 0px !important; outline: 0px !important; overflow: visible !important; padding: 0px 1em !important; position: static !important; text-align: left; vertical-align: baseline !important; width: auto !important; box-sizing: content-box !important; font-family: Consolas, &amp;quot;Bitstream Vera Sans Mono&amp;quot;, &amp;quot;Courier New&amp;quot;, Courier, monospace; font-weight: 400; font-style: normal; font-size: 12px; min-height: auto !important; white-space-collapse: collapse; text-wrap: nowrap !important; color: rgb(75, 75, 75); font-variant-ligatures: normal; font-variant-caps: normal; letter-spacing: normal; orphans: 2; text-indent: 0px; text-transform: none; widows: 2; word-spacing: 0px; -webkit-text-stroke-width: 0px; text-decoration-thickness: initial; text-decoration-style: initial; text-decoration-color: initial;&quot; class=&quot;line number5 index4 alt2&quot;&gt;&lt;code style=&quot;font-family: Consolas, &amp;quot;Bitstream Vera Sans Mono&amp;quot;, &amp;quot;Courier New&amp;quot;, Courier, monospace !important; border-radius: 0px !important; background: none !important; border: 0px !important; inset: auto !important; float: none !important; height: auto !important; line-height: 1.8em !important; margin: 0px !important; outline: 0px !important; overflow: visible !important; padding: 0px !important; position: static !important; text-align: left !important; vertical-align: baseline !important; width: auto !important; box-sizing: content-box !important; font-weight: normal !important; font-style: normal !important; font-size: 12px !important; min-height: auto !important;&quot; class=&quot;go spaces&quot;&gt;&amp;nbsp;&amp;nbsp;&amp;nbsp;&amp;nbsp;&lt;/code&gt;&lt;code style=&quot;font-family: Consolas, &amp;quot;Bitstream Vera Sans Mono&amp;quot;, &amp;quot;Courier New&amp;quot;, Courier, monospace !important; border-radius: 0px !important; background: none !important; border: 0px !important; inset: auto !important; float: none !important; height: auto !important; line-height: 1.8em !important; margin: 0px !important; outline: 0px !important; overflow: visible !important; padding: 0px !important; position: static !important; text-align: left !important; vertical-align: baseline !important; width: auto !important; box-sizing: content-box !important; font-weight: normal !important; font-style: normal !important; font-size: 12px !important; min-height: auto !important; color: rgb(0, 0, 255) !important;&quot; class=&quot;go string&quot;&gt;&quot;net/http&quot;&lt;/code&gt;&lt;/div&gt;&lt;div style=&quot;border-radius: 0px !important; background: none rgb(255, 255, 255) !important; border: 0px !important; inset: auto !important; float: none !important; height: auto !important; line-height: 1.8em !important; margin: 0px !important; outline: 0px !important; overflow: visible !important; padding: 0px 1em !important; position: static !important; text-align: left; vertical-align: baseline !important; width: auto !important; box-sizing: content-box !important; font-family: Consolas, &amp;quot;Bitstream Vera Sans Mono&amp;quot;, &amp;quot;Courier New&amp;quot;, Courier, monospace; font-weight: 400; font-style: normal; font-size: 12px; min-height: auto !important; white-space-collapse: collapse; text-wrap: nowrap !important; color: rgb(75, 75, 75); font-variant-ligatures: normal; font-variant-caps: normal; letter-spacing: normal; orphans: 2; text-indent: 0px; text-transform: none; widows: 2; word-spacing: 0px; -webkit-text-stroke-width: 0px; text-decoration-thickness: initial; text-decoration-style: initial; text-decoration-color: initial;&quot; class=&quot;line number6 index5 alt1&quot;&gt;&lt;code style=&quot;font-family: Consolas, &amp;quot;Bitstream Vera Sans Mono&amp;quot;, &amp;quot;Courier New&amp;quot;, Courier, monospace !important; border-radius: 0px !important; background: none !important; border: 0px !important; inset: auto !important; float: none !important; height: auto !important; line-height: 1.8em !important; margin: 0px !important; outline: 0px !important; overflow: visible !important; padding: 0px !important; position: static !important; text-align: left !important; vertical-align: baseline !important; width: auto !important; box-sizing: content-box !important; font-weight: normal !important; font-style: normal !important; font-size: 12px !important; min-height: auto !important; color: rgb(0, 0, 0) !important;&quot; class=&quot;go plain&quot;&gt;)&lt;/code&gt;&lt;/div&gt;&lt;div style=&quot;border-radius: 0px !important; background: none rgb(244, 244, 244) !important; border: 0px !important; inset: auto !important; float: none !important; height: auto !important; line-height: 1.8em !important; margin: 0px !important; outline: 0px !important; overflow: visible !important; padding: 0px 1em !important; position: static !important; text-align: left; vertical-align: baseline !important; width: auto !important; box-sizing: content-box !important; font-family: Consolas, &amp;quot;Bitstream Vera Sans Mono&amp;quot;, &amp;quot;Courier New&amp;quot;, Courier, monospace; font-weight: 400; font-style: normal; font-size: 12px; min-height: auto !important; white-space-collapse: collapse; text-wrap: nowrap !important; color: rgb(75, 75, 75); font-variant-ligatures: normal; font-variant-caps: normal; letter-spacing: normal; orphans: 2; text-indent: 0px; text-transform: none; widows: 2; word-spacing: 0px; -webkit-text-stroke-width: 0px; text-decoration-thickness: initial; text-decoration-style: initial; text-decoration-color: initial;&quot; class=&quot;line number7 index6 alt2&quot;&gt;&amp;nbsp;&lt;/div&gt;&lt;div style=&quot;border-radius: 0px !important; background: none rgb(255, 255, 255) !important; border: 0px !important; inset: auto !important; float: none !important; height: auto !important; line-height: 1.8em !important; margin: 0px !important; outline: 0px !important; overflow: visible !important; padding: 0px 1em !important; position: static !important; text-align: left; vertical-align: baseline !important; width: auto !important; box-sizing: content-box !important; font-family: Consolas, &amp;quot;Bitstream Vera Sans Mono&amp;quot;, &amp;quot;Courier New&amp;quot;, Courier, monospace; font-weight: 400; font-style: normal; font-size: 12px; min-height: auto !important; white-space-collapse: collapse; text-wrap: nowrap !important; color: rgb(75, 75, 75); font-variant-ligatures: normal; font-variant-caps: normal; letter-spacing: normal; orphans: 2; text-indent: 0px; text-transform: none; widows: 2; word-spacing: 0px; -webkit-text-stroke-width: 0px; text-decoration-thickness: initial; text-decoration-style: initial; text-decoration-color: initial;&quot; class=&quot;line number8 index7 alt1&quot;&gt;&lt;code style=&quot;font-family: Consolas, &amp;quot;Bitstream Vera Sans Mono&amp;quot;, &amp;quot;Courier New&amp;quot;, Courier, monospace !important; border-radius: 0px !important; background: none !important; border: 0px !important; inset: auto !important; float: none !important; height: auto !important; line-height: 1.8em !important; margin: 0px !important; outline: 0px !important; overflow: visible !important; padding: 0px !important; position: static !important; text-align: left !important; vertical-align: baseline !important; width: auto !important; box-sizing: content-box !important; font-weight: normal !important; font-style: normal !important; font-size: 12px !important; min-height: auto !important; color: rgb(0, 0, 255) !important;&quot; class=&quot;go keyword bold&quot;&gt;type&lt;/code&gt;&lt;span&gt;&amp;nbsp;&lt;/span&gt;&lt;code style=&quot;font-family: Consolas, &amp;quot;Bitstream Vera Sans Mono&amp;quot;, &amp;quot;Courier New&amp;quot;, Courier, monospace !important; border-radius: 0px !important; background: none !important; border: 0px !important; inset: auto !important; float: none !important; height: auto !important; line-height: 1.8em !important; margin: 0px !important; outline: 0px !important; overflow: visible !important; padding: 0px !important; position: static !important; text-align: left !important; vertical-align: baseline !important; width: auto !important; box-sizing: content-box !important; font-weight: normal !important; font-style: normal !important; font-size: 12px !important; min-height: auto !important; color: rgb(0, 0, 0) !important;&quot; class=&quot;go plain&quot;&gt;server int&lt;/code&gt;&lt;/div&gt;&lt;div style=&quot;border-radius: 0px !important; background: none rgb(244, 244, 244) !important; border: 0px !important; inset: auto !important; float: none !important; height: auto !important; line-height: 1.8em !important; margin: 0px !important; outline: 0px !important; overflow: visible !important; padding: 0px 1em !important; position: static !important; text-align: left; vertical-align: baseline !important; width: auto !important; box-sizing: content-box !important; font-family: Consolas, &amp;quot;Bitstream Vera Sans Mono&amp;quot;, &amp;quot;Courier New&amp;quot;, Courier, monospace; font-weight: 400; font-style: normal; font-size: 12px; min-height: auto !important; white-space-collapse: collapse; text-wrap: nowrap !important; color: rgb(75, 75, 75); font-variant-ligatures: normal; font-variant-caps: normal; letter-spacing: normal; orphans: 2; text-indent: 0px; text-transform: none; widows: 2; word-spacing: 0px; -webkit-text-stroke-width: 0px; text-decoration-thickness: initial; text-decoration-style: initial; text-decoration-color: initial;&quot; class=&quot;line number9 index8 alt2&quot;&gt;&amp;nbsp;&lt;/div&gt;&lt;div style=&quot;border-radius: 0px !important; background: none rgb(255, 255, 255) !important; border: 0px !important; inset: auto !important; float: none !important; height: auto !important; line-height: 1.8em !important; margin: 0px !important; outline: 0px !important; overflow: visible !important; padding: 0px 1em !important; position: static !important; text-align: left; vertical-align: baseline !important; width: auto !important; box-sizing: content-box !important; font-family: Consolas, &amp;quot;Bitstream Vera Sans Mono&amp;quot;, &amp;quot;Courier New&amp;quot;, Courier, monospace; font-weight: 400; font-style: normal; font-size: 12px; min-height: auto !important; white-space-collapse: collapse; text-wrap: nowrap !important; color: rgb(75, 75, 75); font-variant-ligatures: normal; font-variant-caps: normal; letter-spacing: normal; orphans: 2; text-indent: 0px; text-transform: none; widows: 2; word-spacing: 0px; -webkit-text-stroke-width: 0px; text-decoration-thickness: initial; text-decoration-style: initial; text-decoration-color: initial;&quot; class=&quot;line number10 index9 alt1&quot;&gt;&lt;code style=&quot;font-family: Consolas, &amp;quot;Bitstream Vera Sans Mono&amp;quot;, &amp;quot;Courier New&amp;quot;, Courier, monospace !important; border-radius: 0px !important; background: none !important; border: 0px !important; inset: auto !important; float: none !important; height: auto !important; line-height: 1.8em !important; margin: 0px !important; outline: 0px !important; overflow: visible !important; padding: 0px !important; position: static !important; text-align: left !important; vertical-align: baseline !important; width: auto !important; box-sizing: content-box !important; font-weight: normal !important; font-style: normal !important; font-size: 12px !important; min-height: auto !important; color: rgb(0, 0, 255) !important;&quot; class=&quot;go keyword bold&quot;&gt;func&lt;/code&gt;&lt;span&gt;&amp;nbsp;&lt;/span&gt;&lt;code style=&quot;font-family: Consolas, &amp;quot;Bitstream Vera Sans Mono&amp;quot;, &amp;quot;Courier New&amp;quot;, Courier, monospace !important; border-radius: 0px !important; background: none !important; border: 0px !important; inset: auto !important; float: none !important; height: auto !important; line-height: 1.8em !important; margin: 0px !important; outline: 0px !important; overflow: visible !important; padding: 0px !important; position: static !important; text-align: left !important; vertical-align: baseline !important; width: auto !important; box-sizing: content-box !important; font-weight: normal !important; font-style: normal !important; font-size: 12px !important; min-height: auto !important; color: rgb(0, 0, 0) !important;&quot; class=&quot;go plain&quot;&gt;(h *server) ServeHTTP(w http.ResponseWriter, r *http.Request) {&lt;/code&gt;&lt;/div&gt;&lt;div style=&quot;border-radius: 0px !important; background: none rgb(244, 244, 244) !important; border: 0px !important; inset: auto !important; float: none !important; height: auto !important; line-height: 1.8em !important; margin: 0px !important; outline: 0px !important; overflow: visible !important; padding: 0px 1em !important; position: static !important; text-align: left; vertical-align: baseline !important; width: auto !important; box-sizing: content-box !important; font-family: Consolas, &amp;quot;Bitstream Vera Sans Mono&amp;quot;, &amp;quot;Courier New&amp;quot;, Courier, monospace; font-weight: 400; font-style: normal; font-size: 12px; min-height: auto !important; white-space-collapse: collapse; text-wrap: nowrap !important; color: rgb(75, 75, 75); font-variant-ligatures: normal; font-variant-caps: normal; letter-spacing: normal; orphans: 2; text-indent: 0px; text-transform: none; widows: 2; word-spacing: 0px; -webkit-text-stroke-width: 0px; text-decoration-thickness: initial; text-decoration-style: initial; text-decoration-color: initial;&quot; class=&quot;line number11 index10 alt2&quot;&gt;&lt;code style=&quot;font-family: Consolas, &amp;quot;Bitstream Vera Sans Mono&amp;quot;, &amp;quot;Courier New&amp;quot;, Courier, monospace !important; border-radius: 0px !important; background: none !important; border: 0px !important; inset: auto !important; float: none !important; height: auto !important; line-height: 1.8em !important; margin: 0px !important; outline: 0px !important; overflow: visible !important; padding: 0px !important; position: static !important; text-align: left !important; vertical-align: baseline !important; width: auto !important; box-sizing: content-box !important; font-weight: normal !important; font-style: normal !important; font-size: 12px !important; min-height: auto !important;&quot; class=&quot;go spaces&quot;&gt;&amp;nbsp;&amp;nbsp;&amp;nbsp;&amp;nbsp;&lt;/code&gt;&lt;code style=&quot;font-family: Consolas, &amp;quot;Bitstream Vera Sans Mono&amp;quot;, &amp;quot;Courier New&amp;quot;, Courier, monospace !important; border-radius: 0px !important; background: none !important; border: 0px !important; inset: auto !important; float: none !important; height: auto !important; line-height: 1.8em !important; margin: 0px !important; outline: 0px !important; overflow: visible !important; padding: 0px !important; position: static !important; text-align: left !important; vertical-align: baseline !important; width: auto !important; box-sizing: content-box !important; font-weight: normal !important; font-style: normal !important; font-size: 12px !important; min-height: auto !important; color: rgb(0, 0, 0) !important;&quot; class=&quot;go plain&quot;&gt;log.Println(r.URL.Path)&lt;/code&gt;&lt;/div&gt;&lt;div style=&quot;border-radius: 0px !important; background: none rgb(255, 255, 255) !important; border: 0px !important; inset: auto !important; float: none !important; height: auto !important; line-height: 1.8em !important; margin: 0px !important; outline: 0px !important; overflow: visible !important; padding: 0px 1em !important; position: static !important; text-align: left; vertical-align: baseline !important; width: auto !important; box-sizing: content-box !important; font-family: Consolas, &amp;quot;Bitstream Vera Sans Mono&amp;quot;, &amp;quot;Courier New&amp;quot;, Courier, monospace; font-weight: 400; font-style: normal; font-size: 12px; min-height: auto !important; white-space-collapse: collapse; text-wrap: nowrap !important; color: rgb(75, 75, 75); font-variant-ligatures: normal; font-variant-caps: normal; letter-spacing: normal; orphans: 2; text-indent: 0px; text-transform: none; widows: 2; word-spacing: 0px; -webkit-text-stroke-width: 0px; text-decoration-thickness: initial; text-decoration-style: initial; text-decoration-color: initial;&quot; class=&quot;line number12 index11 alt1&quot;&gt;&lt;code style=&quot;font-family: Consolas, &amp;quot;Bitstream Vera Sans Mono&amp;quot;, &amp;quot;Courier New&amp;quot;, Courier, monospace !important; border-radius: 0px !important; background: none !important; border: 0px !important; inset: auto !important; float: none !important; height: auto !important; line-height: 1.8em !important; margin: 0px !important; outline: 0px !important; overflow: visible !important; padding: 0px !important; position: static !important; text-align: left !important; vertical-align: baseline !important; width: auto !important; box-sizing: content-box !important; font-weight: normal !important; font-style: normal !important; font-size: 12px !important; min-height: auto !important;&quot; class=&quot;go spaces&quot;&gt;&amp;nbsp;&amp;nbsp;&amp;nbsp;&amp;nbsp;&lt;/code&gt;&lt;code style=&quot;font-family: Consolas, &amp;quot;Bitstream Vera Sans Mono&amp;quot;, &amp;quot;Courier New&amp;quot;, Courier, monospace !important; border-radius: 0px !important; background: none !important; border: 0px !important; inset: auto !important; float: none !important; height: auto !important; line-height: 1.8em !important; margin: 0px !important; outline: 0px !important; overflow: visible !important; padding: 0px !important; position: static !important; text-align: left !important; vertical-align: baseline !important; width: auto !important; box-sizing: content-box !important; font-weight: normal !important; font-style: normal !important; font-size: 12px !important; min-height: auto !important; color: rgb(0, 0, 0) !important;&quot; class=&quot;go plain&quot;&gt;w.Write([]byte(&lt;/code&gt;&lt;code style=&quot;font-family: Consolas, &amp;quot;Bitstream Vera Sans Mono&amp;quot;, &amp;quot;Courier New&amp;quot;, Courier, monospace !important; border-radius: 0px !important; background: none !important; border: 0px !important; inset: auto !important; float: none !important; height: auto !important; line-height: 1.8em !important; margin: 0px !important; outline: 0px !important; overflow: visible !important; padding: 0px !important; position: static !important; text-align: left !important; vertical-align: baseline !important; width: auto !important; box-sizing: content-box !important; font-weight: normal !important; font-style: normal !important; font-size: 12px !important; min-height: auto !important; color: rgb(0, 0, 255) !important;&quot; class=&quot;go string&quot;&gt;&quot;Hello World!&quot;&lt;/code&gt;&lt;code style=&quot;font-family: Consolas, &amp;quot;Bitstream Vera Sans Mono&amp;quot;, &amp;quot;Courier New&amp;quot;, Courier, monospace !important; border-radius: 0px !important; background: none !important; border: 0px !important; inset: auto !important; float: none !important; height: auto !important; line-height: 1.8em !important; margin: 0px !important; outline: 0px !important; overflow: visible !important; padding: 0px !important; position: static !important; text-align: left !important; vertical-align: baseline !important; width: auto !important; box-sizing: content-box !important; font-weight: normal !important; font-style: normal !important; font-size: 12px !important; min-height: auto !important; color: rgb(0, 0, 0) !important;&quot; class=&quot;go plain&quot;&gt;))&lt;/code&gt;&lt;/div&gt;&lt;div style=&quot;border-radius: 0px !important; background: none rgb(244, 244, 244) !important; border: 0px !important; inset: auto !important; float: none !important; height: auto !important; line-height: 1.8em !important; margin: 0px !important; outline: 0px !important; overflow: visible !important; padding: 0px 1em !important; position: static !important; text-align: left; vertical-align: baseline !important; width: auto !important; box-sizing: content-box !important; font-family: Consolas, &amp;quot;Bitstream Vera Sans Mono&amp;quot;, &amp;quot;Courier New&amp;quot;, Courier, monospace; font-weight: 400; font-style: normal; font-size: 12px; min-height: auto !important; white-space-collapse: collapse; text-wrap: nowrap !important; color: rgb(75, 75, 75); font-variant-ligatures: normal; font-variant-caps: normal; letter-spacing: normal; orphans: 2; text-indent: 0px; text-transform: none; widows: 2; word-spacing: 0px; -webkit-text-stroke-width: 0px; text-decoration-thickness: initial; text-decoration-style: initial; text-decoration-color: initial;&quot; class=&quot;line number13 index12 alt2&quot;&gt;&lt;code style=&quot;font-family: Consolas, &amp;quot;Bitstream Vera Sans Mono&amp;quot;, &amp;quot;Courier New&amp;quot;, Courier, monospace !important; border-radius: 0px !important; background: none !important; border: 0px !important; inset: auto !important; float: none !important; height: auto !important; line-height: 1.8em !important; margin: 0px !important; outline: 0px !important; overflow: visible !important; padding: 0px !important; position: static !important; text-align: left !important; vertical-align: baseline !important; width: auto !important; box-sizing: content-box !important; font-weight: normal !important; font-style: normal !important; font-size: 12px !important; min-height: auto !important; color: rgb(0, 0, 0) !important;&quot; class=&quot;go plain&quot;&gt;}&lt;/code&gt;&lt;/div&gt;&lt;div style=&quot;border-radius: 0px !important; background: none rgb(255, 255, 255) !important; border: 0px !important; inset: auto !important; float: none !important; height: auto !important; line-height: 1.8em !important; margin: 0px !important; outline: 0px !important; overflow: visible !important; padding: 0px 1em !important; position: static !important; text-align: left; vertical-align: baseline !important; width: auto !important; box-sizing: content-box !important; font-family: Consolas, &amp;quot;Bitstream Vera Sans Mono&amp;quot;, &amp;quot;Courier New&amp;quot;, Courier, monospace; font-weight: 400; font-style: normal; font-size: 12px; min-height: auto !important; white-space-collapse: collapse; text-wrap: nowrap !important; color: rgb(75, 75, 75); font-variant-ligatures: normal; font-variant-caps: normal; letter-spacing: normal; orphans: 2; text-indent: 0px; text-transform: none; widows: 2; word-spacing: 0px; -webkit-text-stroke-width: 0px; text-decoration-thickness: initial; text-decoration-style: initial; text-decoration-color: initial;&quot; class=&quot;line number14 index13 alt1&quot;&gt;&amp;nbsp;&lt;/div&gt;&lt;div style=&quot;border-radius: 0px !important; background: none rgb(244, 244, 244) !important; border: 0px !important; inset: auto !important; float: none !important; height: auto !important; line-height: 1.8em !important; margin: 0px !important; outline: 0px !important; overflow: visible !important; padding: 0px 1em !important; position: static !important; text-align: left; vertical-align: baseline !important; width: auto !important; box-sizing: content-box !important; font-family: Consolas, &amp;quot;Bitstream Vera Sans Mono&amp;quot;, &amp;quot;Courier New&amp;quot;, Courier, monospace; font-weight: 400; font-style: normal; font-size: 12px; min-height: auto !important; white-space-collapse: collapse; text-wrap: nowrap !important; color: rgb(75, 75, 75); font-variant-ligatures: normal; font-variant-caps: normal; letter-spacing: normal; orphans: 2; text-indent: 0px; text-transform: none; widows: 2; word-spacing: 0px; -webkit-text-stroke-width: 0px; text-decoration-thickness: initial; text-decoration-style: initial; text-decoration-color: initial;&quot; class=&quot;line number15 index14 alt2&quot;&gt;&lt;code style=&quot;font-family: Consolas, &amp;quot;Bitstream Vera Sans Mono&amp;quot;, &amp;quot;Courier New&amp;quot;, Courier, monospace !important; border-radius: 0px !important; background: none !important; border: 0px !important; inset: auto !important; float: none !important; height: auto !important; line-height: 1.8em !important; margin: 0px !important; outline: 0px !important; overflow: visible !important; padding: 0px !important; position: static !important; text-align: left !important; vertical-align: baseline !important; width: auto !important; box-sizing: content-box !important; font-weight: normal !important; font-style: normal !important; font-size: 12px !important; min-height: auto !important; color: rgb(0, 0, 255) !important;&quot; class=&quot;go keyword bold&quot;&gt;func&lt;/code&gt;&lt;span&gt;&amp;nbsp;&lt;/span&gt;&lt;code style=&quot;font-family: Consolas, &amp;quot;Bitstream Vera Sans Mono&amp;quot;, &amp;quot;Courier New&amp;quot;, Courier, monospace !important; border-radius: 0px !important; background: none !important; border: 0px !important; inset: auto !important; float: none !important; height: auto !important; line-height: 1.8em !important; margin: 0px !important; outline: 0px !important; overflow: visible !important; padding: 0px !important; position: static !important; text-align: left !important; vertical-align: baseline !important; width: auto !important; box-sizing: content-box !important; font-weight: normal !important; font-style: normal !important; font-size: 12px !important; min-height: auto !important; color: rgb(0, 0, 0) !important;&quot; class=&quot;go plain&quot;&gt;main() {&lt;/code&gt;&lt;/div&gt;&lt;div style=&quot;border-radius: 0px !important; background: none rgb(255, 255, 255) !important; border: 0px !important; inset: auto !important; float: none !important; height: auto !important; line-height: 1.8em !important; margin: 0px !important; outline: 0px !important; overflow: visible !important; padding: 0px 1em !important; position: static !important; text-align: left; vertical-align: baseline !important; width: auto !important; box-sizing: content-box !important; font-family: Consolas, &amp;quot;Bitstream Vera Sans Mono&amp;quot;, &amp;quot;Courier New&amp;quot;, Courier, monospace; font-weight: 400; font-style: normal; font-size: 12px; min-height: auto !important; white-space-collapse: collapse; text-wrap: nowrap !important; color: rgb(75, 75, 75); font-variant-ligatures: normal; font-variant-caps: normal; letter-spacing: normal; orphans: 2; text-indent: 0px; text-transform: none; widows: 2; word-spacing: 0px; -webkit-text-stroke-width: 0px; text-decoration-thickness: initial; text-decoration-style: initial; text-decoration-color: initial;&quot; class=&quot;line number16 index15 alt1&quot;&gt;&lt;code style=&quot;font-family: Consolas, &amp;quot;Bitstream Vera Sans Mono&amp;quot;, &amp;quot;Courier New&amp;quot;, Courier, monospace !important; border-radius: 0px !important; background: none !important; border: 0px !important; inset: auto !important; float: none !important; height: auto !important; line-height: 1.8em !important; margin: 0px !important; outline: 0px !important; overflow: visible !important; padding: 0px !important; position: static !important; text-align: left !important; vertical-align: baseline !important; width: auto !important; box-sizing: content-box !important; font-weight: normal !important; font-style: normal !important; font-size: 12px !important; min-height: auto !important;&quot; class=&quot;go spaces&quot;&gt;&amp;nbsp;&amp;nbsp;&amp;nbsp;&amp;nbsp;&lt;/code&gt;&lt;code style=&quot;font-family: Consolas, &amp;quot;Bitstream Vera Sans Mono&amp;quot;, &amp;quot;Courier New&amp;quot;, Courier, monospace !important; border-radius: 0px !important; background: none !important; border: 0px !important; inset: auto !important; float: none !important; height: auto !important; line-height: 1.8em !important; margin: 0px !important; outline: 0px !important; overflow: visible !important; padding: 0px !important; position: static !important; text-align: left !important; vertical-align: baseline !important; width: auto !important; box-sizing: content-box !important; font-weight: normal !important; font-style: normal !important; font-size: 12px !important; min-height: auto !important; color: rgb(0, 0, 255) !important;&quot; class=&quot;go keyword bold&quot;&gt;var&lt;/code&gt;&lt;span&gt;&amp;nbsp;&lt;/span&gt;&lt;code style=&quot;font-family: Consolas, &amp;quot;Bitstream Vera Sans Mono&amp;quot;, &amp;quot;Courier New&amp;quot;, Courier, monospace !important; border-radius: 0px !important; background: none !important; border: 0px !important; inset: auto !important; float: none !important; height: auto !important; line-height: 1.8em !important; margin: 0px !important; outline: 0px !important; overflow: visible !important; padding: 0px !important; position: static !important; text-align: left !important; vertical-align: baseline !important; width: auto !important; box-sizing: content-box !important; font-weight: normal !important; font-style: normal !important; font-size: 12px !important; min-height: auto !important; color: rgb(0, 0, 0) !important;&quot; class=&quot;go plain&quot;&gt;s server&lt;/code&gt;&lt;/div&gt;&lt;div style=&quot;border-radius: 0px !important; background: none rgb(244, 244, 244) !important; border: 0px !important; inset: auto !important; float: none !important; height: auto !important; line-height: 1.8em !important; margin: 0px !important; outline: 0px !important; overflow: visible !important; padding: 0px 1em !important; position: static !important; text-align: left; vertical-align: baseline !important; width: auto !important; box-sizing: content-box !important; font-family: Consolas, &amp;quot;Bitstream Vera Sans Mono&amp;quot;, &amp;quot;Courier New&amp;quot;, Courier, monospace; font-weight: 400; font-style: normal; font-size: 12px; min-height: auto !important; white-space-collapse: collapse; text-wrap: nowrap !important; color: rgb(75, 75, 75); font-variant-ligatures: normal; font-variant-caps: normal; letter-spacing: normal; orphans: 2; text-indent: 0px; text-transform: none; widows: 2; word-spacing: 0px; -webkit-text-stroke-width: 0px; text-decoration-thickness: initial; text-decoration-style: initial; text-decoration-color: initial;&quot; class=&quot;line number17 index16 alt2&quot;&gt;&lt;code style=&quot;font-family: Consolas, &amp;quot;Bitstream Vera Sans Mono&amp;quot;, &amp;quot;Courier New&amp;quot;, Courier, monospace !important; border-radius: 0px !important; background: none !important; border: 0px !important; inset: auto !important; float: none !important; height: auto !important; line-height: 1.8em !important; margin: 0px !important; outline: 0px !important; overflow: visible !important; padding: 0px !important; position: static !important; text-align: left !important; vertical-align: baseline !important; width: auto !important; box-sizing: content-box !important; font-weight: normal !important; font-style: normal !important; font-size: 12px !important; min-height: auto !important;&quot; class=&quot;go spaces&quot;&gt;&amp;nbsp;&amp;nbsp;&amp;nbsp;&amp;nbsp;&lt;/code&gt;&lt;code style=&quot;font-family: Consolas, &amp;quot;Bitstream Vera Sans Mono&amp;quot;, &amp;quot;Courier New&amp;quot;, Courier, monospace !important; border-radius: 0px !important; background: none !important; border: 0px !important; inset: auto !important; float: none !important; height: auto !important; line-height: 1.8em !important; margin: 0px !important; outline: 0px !important; overflow: visible !important; padding: 0px !important; position: static !important; text-align: left !important; vertical-align: baseline !important; width: auto !important; box-sizing: content-box !important; font-weight: normal !important; font-style: normal !important; font-size: 12px !important; min-height: auto !important; color: rgb(0, 0, 0) !important;&quot; class=&quot;go plain&quot;&gt;http.ListenAndServe(&lt;/code&gt;&lt;code style=&quot;font-family: Consolas, &amp;quot;Bitstream Vera Sans Mono&amp;quot;, &amp;quot;Courier New&amp;quot;, Courier, monospace !important; border-radius: 0px !important; background: none !important; border: 0px !important; inset: auto !important; float: none !important; height: auto !important; line-height: 1.8em !important; margin: 0px !important; outline: 0px !important; overflow: visible !important; padding: 0px !important; position: static !important; text-align: left !important; vertical-align: baseline !important; width: auto !important; box-sizing: content-box !important; font-weight: normal !important; font-style: normal !important; font-size: 12px !important; min-height: auto !important; color: rgb(0, 0, 255) !important;&quot; class=&quot;go string&quot;&gt;&quot;localhost:8080&quot;&lt;/code&gt;&lt;code style=&quot;font-family: Consolas, &amp;quot;Bitstream Vera Sans Mono&amp;quot;, &amp;quot;Courier New&amp;quot;, Courier, monospace !important; border-radius: 0px !important; background: none !important; border: 0px !important; inset: auto !important; float: none !important; height: auto !important; line-height: 1.8em !important; margin: 0px !important; outline: 0px !important; overflow: visible !important; padding: 0px !important; position: static !important; text-align: left !important; vertical-align: baseline !important; width: auto !important; box-sizing: content-box !important; font-weight: normal !important; font-style: normal !important; font-size: 12px !important; min-height: auto !important; color: rgb(0, 0, 0) !important;&quot; class=&quot;go plain&quot;&gt;, &amp;amp;s)&lt;/code&gt;&lt;/div&gt;&lt;div style=&quot;border-radius: 0px !important; background: none rgb(255, 255, 255) !important; border: 0px !important; inset: auto !important; float: none !important; height: auto !important; line-height: 1.8em !important; margin: 0px !important; outline: 0px !important; overflow: visible !important; padding: 0px 1em !important; position: static !important; text-align: left; vertical-align: baseline !important; width: auto !important; box-sizing: content-box !important; font-family: Consolas, &amp;quot;Bitstream Vera Sans Mono&amp;quot;, &amp;quot;Courier New&amp;quot;, Courier, monospace; font-weight: 400; font-style: normal; font-size: 12px; min-height: auto !important; white-space-collapse: collapse; text-wrap: nowrap !important; color: rgb(75, 75, 75); font-variant-ligatures: normal; font-variant-caps: normal; letter-spacing: normal; orphans: 2; text-indent: 0px; text-transform: none; widows: 2; word-spacing: 0px; -webkit-text-stroke-width: 0px; text-decoration-thickness: initial; text-decoration-style: initial; text-decoration-color: initial;&quot; class=&quot;line number18 index17 alt1&quot;&gt;&lt;code style=&quot;font-family: Consolas, &amp;quot;Bitstream Vera Sans Mono&amp;quot;, &amp;quot;Courier New&amp;quot;, Courier, monospace !important; border-radius: 0px !important; background: none !important; border: 0px !important; inset: auto !important; float: none !important; height: auto !important; line-height: 1.8em !important; margin: 0px !important; outline: 0px !important; overflow: visible !important; padding: 0px !important; position: static !important; text-align: left !important; vertical-align: baseline !important; width: auto !important; box-sizing: content-box !important; font-weight: normal !important; font-style: normal !important; font-size: 12px !important; min-height: auto !important; color: rgb(0, 0, 0) !important;&quot; class=&quot;go plain&quot;&gt;}&lt;/code&gt;&lt;/div&gt;" style="text;whiteSpace=wrap;html=1;" parent="1" vertex="1">
                    <mxGeometry x="830" y="70" width="510" height="410" as="geometry"/>
                </mxCell>
                <mxCell id="12" value="http/httprouter/gin/gorestful http 业务处理框架" style="rounded=0;whiteSpace=wrap;html=1;" parent="1" vertex="1">
                    <mxGeometry x="140" y="325" width="430" height="115" as="geometry"/>
                </mxCell>
                <mxCell id="21" style="edgeStyle=orthogonalEdgeStyle;html=1;exitX=0;exitY=0.75;exitDx=0;exitDy=0;entryX=0;entryY=0.5;entryDx=0;entryDy=0;" parent="1" source="13" target="16" edge="1">
                    <mxGeometry relative="1" as="geometry">
                        <Array as="points">
                            <mxPoint x="150" y="340"/>
                            <mxPoint x="150" y="415"/>
                        </Array>
                    </mxGeometry>
                </mxCell>
                <mxCell id="13" value="Http Request" style="rounded=0;whiteSpace=wrap;html=1;" parent="1" vertex="1">
                    <mxGeometry x="170" y="320" width="120" height="40" as="geometry"/>
                </mxCell>
                <mxCell id="14" value="Http Response" style="rounded=0;whiteSpace=wrap;html=1;" parent="1" vertex="1">
                    <mxGeometry x="400" y="320" width="120" height="40" as="geometry"/>
                </mxCell>
                <mxCell id="15" value="" style="rounded=0;whiteSpace=wrap;html=1;" parent="1" vertex="1">
                    <mxGeometry x="170" y="400" width="350" height="30" as="geometry"/>
                </mxCell>
                <mxCell id="16" value="解析用户请求" style="rounded=0;whiteSpace=wrap;html=1;" parent="1" vertex="1">
                    <mxGeometry x="170" y="400" width="120" height="30" as="geometry"/>
                </mxCell>
                <mxCell id="17" value="业务逻辑处理" style="rounded=0;whiteSpace=wrap;html=1;" parent="1" vertex="1">
                    <mxGeometry x="290" y="400" width="120" height="30" as="geometry"/>
                </mxCell>
                <mxCell id="46" style="edgeStyle=orthogonalEdgeStyle;html=1;exitX=1;exitY=0.5;exitDx=0;exitDy=0;entryX=1;entryY=0.5;entryDx=0;entryDy=0;" parent="1" source="18" target="14" edge="1">
                    <mxGeometry relative="1" as="geometry">
                        <Array as="points">
                            <mxPoint x="550" y="415"/>
                            <mxPoint x="550" y="340"/>
                        </Array>
                    </mxGeometry>
                </mxCell>
                <mxCell id="18" value="返回处理结果" style="rounded=0;whiteSpace=wrap;html=1;" parent="1" vertex="1">
                    <mxGeometry x="400" y="400" width="120" height="30" as="geometry"/>
                </mxCell>
                <mxCell id="22" value="业务逻辑" style="rounded=0;whiteSpace=wrap;html=1;" parent="1" vertex="1">
                    <mxGeometry x="650" y="330" width="120" height="60" as="geometry"/>
                </mxCell>
                <mxCell id="23" value="业务逻辑" style="rounded=0;whiteSpace=wrap;html=1;" parent="1" vertex="1">
                    <mxGeometry x="660" y="340" width="120" height="60" as="geometry"/>
                </mxCell>
                <mxCell id="24" value="业务逻辑" style="rounded=0;whiteSpace=wrap;html=1;" parent="1" vertex="1">
                    <mxGeometry x="670" y="350" width="120" height="60" as="geometry"/>
                </mxCell>
                <mxCell id="25" value="业务逻辑" style="rounded=0;whiteSpace=wrap;html=1;" parent="1" vertex="1">
                    <mxGeometry x="680" y="360" width="120" height="60" as="geometry"/>
                </mxCell>
                <mxCell id="26" value="业务逻辑" style="rounded=0;whiteSpace=wrap;html=1;" parent="1" vertex="1">
                    <mxGeometry x="690" y="370" width="120" height="60" as="geometry"/>
                </mxCell>
                <mxCell id="27" value="" style="rounded=0;whiteSpace=wrap;html=1;" parent="1" vertex="1">
                    <mxGeometry x="138" y="480" width="430" height="100" as="geometry"/>
                </mxCell>
                <mxCell id="28" value="接口层/Restful" style="text;html=1;strokeColor=none;fillColor=none;align=center;verticalAlign=middle;whiteSpace=wrap;rounded=0;" parent="1" vertex="1">
                    <mxGeometry x="110" y="290" width="130" height="30" as="geometry"/>
                </mxCell>
                <mxCell id="29" value="业务控制层(Controller)" style="text;html=1;strokeColor=none;fillColor=none;align=center;verticalAlign=middle;whiteSpace=wrap;rounded=0;" parent="1" vertex="1">
                    <mxGeometry x="140" y="450" width="90" height="30" as="geometry"/>
                </mxCell>
                <mxCell id="30" value="&lt;h1&gt;项目架构组织风格&lt;/h1&gt;&lt;p&gt;1. mvc 按照功能进行分层&lt;/p&gt;&lt;p&gt;2. ddd 业务分区架构&lt;/p&gt;" style="text;html=1;strokeColor=none;fillColor=none;spacing=5;spacingTop=-20;whiteSpace=wrap;overflow=hidden;rounded=0;" parent="1" vertex="1">
                    <mxGeometry x="655" y="465" width="190" height="120" as="geometry"/>
                </mxCell>
                <mxCell id="38" value="对象转行&lt;br&gt;&lt;br&gt;grom" style="edgeStyle=orthogonalEdgeStyle;html=1;exitX=0;exitY=0.5;exitDx=0;exitDy=0;" parent="1" source="31" target="33" edge="1">
                    <mxGeometry relative="1" as="geometry">
                        <mxPoint as="offset"/>
                    </mxGeometry>
                </mxCell>
                <mxCell id="40" style="edgeStyle=orthogonalEdgeStyle;html=1;exitX=0.5;exitY=0;exitDx=0;exitDy=0;" parent="1" source="31" target="17" edge="1">
                    <mxGeometry relative="1" as="geometry"/>
                </mxCell>
                <mxCell id="31" value="controller" style="rounded=0;whiteSpace=wrap;html=1;" parent="1" vertex="1">
                    <mxGeometry x="420" y="495" width="130" height="40" as="geometry"/>
                </mxCell>
                <mxCell id="37" style="edgeStyle=orthogonalEdgeStyle;html=1;exitX=0.5;exitY=1;exitDx=0;exitDy=0;" parent="1" source="31" target="34" edge="1">
                    <mxGeometry relative="1" as="geometry"/>
                </mxCell>
                <mxCell id="39" value="取出数据" style="edgeLabel;html=1;align=center;verticalAlign=middle;resizable=0;points=[];" parent="37" vertex="1" connectable="0">
                    <mxGeometry x="0.197" y="2" relative="1" as="geometry">
                        <mxPoint as="offset"/>
                    </mxGeometry>
                </mxCell>
                <mxCell id="33" value="model" style="rounded=0;whiteSpace=wrap;html=1;" parent="1" vertex="1">
                    <mxGeometry x="150" y="500" width="80" height="40" as="geometry"/>
                </mxCell>
                <mxCell id="34" value="DB/MySQL" style="strokeWidth=2;html=1;shape=mxgraph.flowchart.database;whiteSpace=wrap;" parent="1" vertex="1">
                    <mxGeometry x="455" y="670" width="60" height="60" as="geometry"/>
                </mxCell>
                <mxCell id="35" value="API Server" style="text;html=1;strokeColor=none;fillColor=none;align=center;verticalAlign=middle;whiteSpace=wrap;rounded=0;" parent="1" vertex="1">
                    <mxGeometry x="110" y="170" width="100" height="30" as="geometry"/>
                </mxCell>
                <mxCell id="41" value="" style="rounded=0;whiteSpace=wrap;html=1;" parent="1" vertex="1">
                    <mxGeometry x="460" y="1140" width="430" height="70" as="geometry"/>
                </mxCell>
                <mxCell id="42" value="对象转行&lt;br&gt;&lt;br&gt;grom" style="edgeStyle=orthogonalEdgeStyle;html=1;exitX=0;exitY=0.5;exitDx=0;exitDy=0;" parent="1" source="43" target="45" edge="1">
                    <mxGeometry relative="1" as="geometry">
                        <mxPoint as="offset"/>
                    </mxGeometry>
                </mxCell>
                <mxCell id="93" style="edgeStyle=orthogonalEdgeStyle;html=1;exitX=0.5;exitY=1;exitDx=0;exitDy=0;entryX=0;entryY=0.5;entryDx=0;entryDy=0;" parent="1" source="43" target="92" edge="1">
                    <mxGeometry relative="1" as="geometry"/>
                </mxCell>
                <mxCell id="94" value="渲染: 用对象替换到模板里面的变量" style="edgeLabel;html=1;align=center;verticalAlign=middle;resizable=0;points=[];" parent="93" vertex="1" connectable="0">
                    <mxGeometry x="0.1633" y="-1" relative="1" as="geometry">
                        <mxPoint x="-19" y="4" as="offset"/>
                    </mxGeometry>
                </mxCell>
                <mxCell id="96" style="edgeStyle=orthogonalEdgeStyle;html=1;exitX=0.5;exitY=0;exitDx=0;exitDy=0;" parent="1" source="43" edge="1">
                    <mxGeometry relative="1" as="geometry">
                        <mxPoint x="680" y="1130" as="targetPoint"/>
                    </mxGeometry>
                </mxCell>
                <mxCell id="43" value="controller" style="rounded=0;whiteSpace=wrap;html=1;" parent="1" vertex="1">
                    <mxGeometry x="630" y="1160" width="100" height="40" as="geometry"/>
                </mxCell>
                <mxCell id="44" value="view&lt;br&gt;Template" style="rounded=0;whiteSpace=wrap;html=1;" parent="1" vertex="1">
                    <mxGeometry x="750" y="1160" width="120" height="40" as="geometry"/>
                </mxCell>
                <mxCell id="45" value="model" style="rounded=0;whiteSpace=wrap;html=1;" parent="1" vertex="1">
                    <mxGeometry x="470" y="1160" width="80" height="40" as="geometry"/>
                </mxCell>
                <mxCell id="47" value="" style="dashed=0;outlineConnect=0;html=1;align=center;labelPosition=center;verticalLabelPosition=bottom;verticalAlign=top;shape=mxgraph.weblogos.json" parent="1" vertex="1">
                    <mxGeometry x="410" y="150" width="30" height="25.8" as="geometry"/>
                </mxCell>
                <mxCell id="48" value="" style="dashed=0;outlineConnect=0;html=1;align=center;labelPosition=center;verticalLabelPosition=bottom;verticalAlign=top;shape=mxgraph.weblogos.json" parent="1" vertex="1">
                    <mxGeometry x="310" y="150" width="30" height="25.8" as="geometry"/>
                </mxCell>
                <mxCell id="50" value="" style="rounded=0;whiteSpace=wrap;html=1;" parent="1" vertex="1">
                    <mxGeometry x="20" y="240" width="110" height="340" as="geometry"/>
                </mxCell>
                <mxCell id="59" style="edgeStyle=orthogonalEdgeStyle;html=1;exitX=0.25;exitY=1;exitDx=0;exitDy=0;" parent="1" source="51" target="56" edge="1">
                    <mxGeometry relative="1" as="geometry"/>
                </mxCell>
                <mxCell id="51" value="conf&lt;br&gt;程序配置" style="rounded=0;whiteSpace=wrap;html=1;" parent="1" vertex="1">
                    <mxGeometry x="30" y="520" width="90" height="45" as="geometry"/>
                </mxCell>
                <mxCell id="52" value="cli&lt;br&gt;start -f&amp;nbsp; xx.conf" style="rounded=0;whiteSpace=wrap;html=1;" parent="1" vertex="1">
                    <mxGeometry x="30" y="247.5" width="90" height="35" as="geometry"/>
                </mxCell>
                <mxCell id="53" value="程序入口" style="rounded=0;whiteSpace=wrap;html=1;" parent="1" vertex="1">
                    <mxGeometry x="20" y="205" width="110" height="30" as="geometry"/>
                </mxCell>
                <mxCell id="54" value="运行环境(VM/Container/....)" style="rounded=0;whiteSpace=wrap;html=1;" parent="1" vertex="1">
                    <mxGeometry x="40" y="1000" width="260" height="40" as="geometry"/>
                </mxCell>
                <mxCell id="55" value="App" style="rounded=0;whiteSpace=wrap;html=1;" parent="1" vertex="1">
                    <mxGeometry x="40" y="960" width="260" height="30" as="geometry"/>
                </mxCell>
                <mxCell id="56" value="" style="sketch=0;points=[[0,0,0],[0.25,0,0],[0.5,0,0],[0.75,0,0],[1,0,0],[0,1,0],[0.25,1,0],[0.5,1,0],[0.75,1,0],[1,1,0],[0,0.25,0],[0,0.5,0],[0,0.75,0],[1,0.25,0],[1,0.5,0],[1,0.75,0]];points=[[0,0,0],[0.25,0,0],[0.5,0,0],[0.75,0,0],[1,0,0],[0,1,0],[0.25,1,0],[0.5,1,0],[0.75,1,0],[1,1,0],[0,0.25,0],[0,0.5,0],[0,0.75,0],[1,0.25,0],[1,0.5,0],[1,0.75,0]];outlineConnect=0;fontColor=#232F3E;gradientColor=#F34482;gradientDirection=north;fillColor=#BC1356;strokeColor=#ffffff;dashed=0;verticalLabelPosition=bottom;verticalAlign=top;align=center;html=1;fontSize=12;fontStyle=0;aspect=fixed;shape=mxgraph.aws4.resourceIcon;resIcon=mxgraph.aws4.app_config;" parent="1" vertex="1">
                    <mxGeometry x="10" y="660" width="70" height="70" as="geometry"/>
                </mxCell>
                <mxCell id="58" value="&lt;h1&gt;程序配置&lt;/h1&gt;&lt;p&gt;1. 文件: config.toml/ini/yaml&lt;/p&gt;&lt;p&gt;2. 环境变量: ENV&lt;/p&gt;&lt;p&gt;3. 配置中心(appllo/console/nacos)&lt;/p&gt;" style="text;html=1;strokeColor=none;fillColor=none;spacing=5;spacingTop=-20;whiteSpace=wrap;overflow=hidden;rounded=0;" parent="1" vertex="1">
                    <mxGeometry x="110" y="635" width="190" height="120" as="geometry"/>
                </mxCell>
                <mxCell id="60" value="http/httprouter/gin/gorestful http 业务处理框架" style="rounded=0;whiteSpace=wrap;html=1;" parent="1" vertex="1">
                    <mxGeometry x="450" y="825" width="430" height="115" as="geometry"/>
                </mxCell>
                <mxCell id="61" style="edgeStyle=orthogonalEdgeStyle;html=1;exitX=0;exitY=0.75;exitDx=0;exitDy=0;entryX=0;entryY=0.5;entryDx=0;entryDy=0;" parent="1" source="62" target="65" edge="1">
                    <mxGeometry relative="1" as="geometry">
                        <Array as="points">
                            <mxPoint x="460" y="840"/>
                            <mxPoint x="460" y="915"/>
                        </Array>
                    </mxGeometry>
                </mxCell>
                <mxCell id="62" value="Http Request" style="rounded=0;whiteSpace=wrap;html=1;" parent="1" vertex="1">
                    <mxGeometry x="480" y="820" width="120" height="40" as="geometry"/>
                </mxCell>
                <mxCell id="63" value="Http Response" style="rounded=0;whiteSpace=wrap;html=1;" parent="1" vertex="1">
                    <mxGeometry x="710" y="820" width="120" height="40" as="geometry"/>
                </mxCell>
                <mxCell id="64" value="" style="rounded=0;whiteSpace=wrap;html=1;" parent="1" vertex="1">
                    <mxGeometry x="480" y="900" width="350" height="30" as="geometry"/>
                </mxCell>
                <mxCell id="65" value="解析用户请求" style="rounded=0;whiteSpace=wrap;html=1;" parent="1" vertex="1">
                    <mxGeometry x="480" y="900" width="120" height="30" as="geometry"/>
                </mxCell>
                <mxCell id="66" value="业务逻辑处理" style="rounded=0;whiteSpace=wrap;html=1;" parent="1" vertex="1">
                    <mxGeometry x="600" y="900" width="120" height="30" as="geometry"/>
                </mxCell>
                <mxCell id="67" style="edgeStyle=orthogonalEdgeStyle;html=1;exitX=1;exitY=0.5;exitDx=0;exitDy=0;entryX=1;entryY=0.5;entryDx=0;entryDy=0;" parent="1" source="68" target="63" edge="1">
                    <mxGeometry relative="1" as="geometry">
                        <Array as="points">
                            <mxPoint x="860" y="915"/>
                            <mxPoint x="860" y="840"/>
                        </Array>
                    </mxGeometry>
                </mxCell>
                <mxCell id="68" value="返回处理结果" style="rounded=0;whiteSpace=wrap;html=1;" parent="1" vertex="1">
                    <mxGeometry x="710" y="900" width="120" height="30" as="geometry"/>
                </mxCell>
                <mxCell id="69" value="" style="rounded=0;whiteSpace=wrap;html=1;" parent="1" vertex="1">
                    <mxGeometry x="450" y="980" width="430" height="100" as="geometry"/>
                </mxCell>
                <mxCell id="70" value="业务控制层(Controller)" style="text;html=1;strokeColor=none;fillColor=none;align=center;verticalAlign=middle;whiteSpace=wrap;rounded=0;" parent="1" vertex="1">
                    <mxGeometry x="450" y="950" width="90" height="30" as="geometry"/>
                </mxCell>
                <mxCell id="71" value="对象转行&lt;br&gt;&lt;br&gt;grom" style="edgeStyle=orthogonalEdgeStyle;html=1;exitX=0;exitY=0.5;exitDx=0;exitDy=0;" parent="1" source="73" target="75" edge="1">
                    <mxGeometry relative="1" as="geometry">
                        <mxPoint as="offset"/>
                    </mxGeometry>
                </mxCell>
                <mxCell id="73" value="controller" style="rounded=0;whiteSpace=wrap;html=1;" parent="1" vertex="1">
                    <mxGeometry x="595" y="1000" width="130" height="40" as="geometry"/>
                </mxCell>
                <mxCell id="75" value="model" style="rounded=0;whiteSpace=wrap;html=1;" parent="1" vertex="1">
                    <mxGeometry x="460" y="1000" width="80" height="40" as="geometry"/>
                </mxCell>
                <mxCell id="77" value="Model( 数据结构定义)" style="rounded=0;whiteSpace=wrap;html=1;" parent="1" vertex="1">
                    <mxGeometry x="1110" y="1130" width="150" height="40" as="geometry"/>
                </mxCell>
                <mxCell id="78" value="Controller(业务控制器)" style="rounded=0;whiteSpace=wrap;html=1;" parent="1" vertex="1">
                    <mxGeometry x="940" y="1180" width="320" height="40" as="geometry"/>
                </mxCell>
                <mxCell id="79" value="Handler(API 处理)" style="rounded=0;whiteSpace=wrap;html=1;" parent="1" vertex="1">
                    <mxGeometry x="940" y="1230" width="320" height="40" as="geometry"/>
                </mxCell>
                <mxCell id="80" value="DAO(数据访问层)" style="rounded=0;whiteSpace=wrap;html=1;" parent="1" vertex="1">
                    <mxGeometry x="940" y="1130" width="160" height="40" as="geometry"/>
                </mxCell>
                <mxCell id="82" value="" style="rounded=0;whiteSpace=wrap;html=1;" parent="1" vertex="1">
                    <mxGeometry x="940" y="1300" width="320" height="160" as="geometry"/>
                </mxCell>
                <mxCell id="83" value="user" style="rounded=0;whiteSpace=wrap;html=1;" parent="1" vertex="1">
                    <mxGeometry x="950" y="1315" width="110" height="35" as="geometry"/>
                </mxCell>
                <mxCell id="84" value="blog" style="rounded=0;whiteSpace=wrap;html=1;" parent="1" vertex="1">
                    <mxGeometry x="950" y="1360" width="110" height="35" as="geometry"/>
                </mxCell>
                <mxCell id="85" value="comment" style="rounded=0;whiteSpace=wrap;html=1;" parent="1" vertex="1">
                    <mxGeometry x="950" y="1410" width="110" height="35" as="geometry"/>
                </mxCell>
                <mxCell id="87" style="edgeStyle=orthogonalEdgeStyle;html=1;exitX=0.5;exitY=0;exitDx=0;exitDy=0;entryX=0.5;entryY=1;entryDx=0;entryDy=0;" parent="1" source="86" target="66" edge="1">
                    <mxGeometry relative="1" as="geometry"/>
                </mxCell>
                <mxCell id="88" style="edgeStyle=orthogonalEdgeStyle;html=1;exitX=0;exitY=0.5;exitDx=0;exitDy=0;entryX=1;entryY=0.5;entryDx=0;entryDy=0;" parent="1" source="86" target="73" edge="1">
                    <mxGeometry relative="1" as="geometry"/>
                </mxCell>
                <mxCell id="86" value="api" style="rounded=0;whiteSpace=wrap;html=1;" parent="1" vertex="1">
                    <mxGeometry x="740" y="1000" width="130" height="40" as="geometry"/>
                </mxCell>
                <mxCell id="89" value="mvc" style="text;html=1;strokeColor=none;fillColor=none;align=center;verticalAlign=middle;whiteSpace=wrap;rounded=0;" parent="1" vertex="1">
                    <mxGeometry x="340" y="1160" width="60" height="30" as="geometry"/>
                </mxCell>
                <mxCell id="90" value="ddd" style="text;html=1;strokeColor=none;fillColor=none;align=center;verticalAlign=middle;whiteSpace=wrap;rounded=0;" parent="1" vertex="1">
                    <mxGeometry x="350" y="1005" width="60" height="30" as="geometry"/>
                </mxCell>
                <mxCell id="91" value="&lt;h1&gt;MVC 后端渲染&lt;/h1&gt;&lt;p&gt;后端服务器返回的是一个HTML文档&amp;nbsp;&lt;/p&gt;&lt;p&gt;2. 通过orm获取一个数据库记录并转换为一个user对象 user.UserName 小明&lt;/p&gt;&lt;p&gt;3. 使用这个对象 渲染模板, 并返回结构&lt;/p&gt;&lt;p&gt;4. 如果 HTML 由前端编写(JS) View带表的是UI项目&lt;/p&gt;" style="text;html=1;strokeColor=none;fillColor=none;spacing=5;spacingTop=-20;whiteSpace=wrap;overflow=hidden;rounded=0;" parent="1" vertex="1">
                    <mxGeometry x="405" y="1240" width="305" height="180" as="geometry"/>
                </mxCell>
                <mxCell id="92" value="&lt;span style=&quot;text-align: left;&quot;&gt;&amp;lt;html&amp;gt;&lt;br&gt;{{UseName}}&lt;br&gt;&amp;lt;/html&amp;gt;&lt;/span&gt;" style="text;html=1;strokeColor=none;fillColor=none;align=center;verticalAlign=middle;whiteSpace=wrap;rounded=0;" parent="1" vertex="1">
                    <mxGeometry x="760" y="1220" width="110" height="90" as="geometry"/>
                </mxCell>
                <mxCell id="97" value="通过HTTP协议返回给浏览器" style="text;html=1;strokeColor=none;fillColor=none;align=center;verticalAlign=middle;whiteSpace=wrap;rounded=0;" parent="1" vertex="1">
                    <mxGeometry x="600" y="1110" width="160" height="30" as="geometry"/>
                </mxCell>
                <mxCell id="98" value="exception&lt;br&gt;业务异常" style="rounded=0;whiteSpace=wrap;html=1;" vertex="1" parent="1">
                    <mxGeometry x="30" y="465" width="90" height="45" as="geometry"/>
                </mxCell>
                <mxCell id="99" value="response&lt;br&gt;http返回" style="rounded=0;whiteSpace=wrap;html=1;" vertex="1" parent="1">
                    <mxGeometry x="30" y="410" width="90" height="45" as="geometry"/>
                </mxCell>
            </root>
        </mxGraphModel>
    </diagram>
</mxfile>